<svg width="47" height="106" viewBox="0 0 47 106" fill="none" xmlns="http://www.w3.org/2000/svg">
                                <path d="M31.0871 89.2073C33.6807 85.8959 36.1115 82.9404 38.246 80.532C42.4797 75.7047 45.5493 72.9955 46.3273 73.5523C47.1053 74.109 45.6688 77.8006 42.694 83.2496C41.2003 85.9627 39.1772 89.231 36.8832 92.7655L33.2442 98.2492L31.2424 101.12C30.7488 101.849 30.1816 102.526 29.5496 103.14C28.6815 103.993 27.6297 104.636 26.4747 105.02C25.3259 105.378 24.1092 105.46 22.9228 105.26C22.3638 105.164 21.8153 105.015 21.2849 104.814C20.8963 104.666 20.5163 104.496 20.1467 104.305C19.0478 103.707 17.9843 103.046 16.9616 102.326C15.16 101.08 13.4334 99.7285 11.7906 98.2793C9.02751 95.8717 6.55195 93.1528 4.41327 90.1767C0.81736 85.095 -0.24643 81.3381 0.645216 80.7937C1.53686 80.2492 4.26333 82.8047 8.63302 86.634C10.7732 88.4393 13.4792 90.7386 16.5682 92.978L18.0639 94.0352C17.5409 90.7265 17.0399 86.3665 16.6758 80.5661C16.1987 72.5302 16.1382 64.475 16.4947 56.4329C16.8672 47.5473 17.718 38.6882 19.0436 29.8942C21.544 13.0922 25.5975 0.018571 26.6798 0.261284C27.7621 0.503997 26.3379 13.6618 25.5887 30.1347C24.7871 46.5714 24.9319 63.0406 26.0225 79.4607C26.4811 86.3084 26.8234 91.1408 26.9673 94.626L27.1048 94.5512L31.1515 89.3802" fill="#072333"/>
                            </svg>