<svg width="202" height="16" viewBox="0 0 202 16" fill="none" xmlns="http://www.w3.org/2000/svg">
<path d="M2.69318 11.2383H0V2.51101H2.8125C3.65909 2.51101 4.38352 2.68572 4.9858 3.03516C5.58807 3.38175 6.04972 3.88033 6.37074 4.53089C6.69176 5.17862 6.85227 5.95419 6.85227 6.8576C6.85227 7.76669 6.69034 8.54936 6.36648 9.20561C6.04261 9.85902 5.57102 10.3619 4.9517 10.7141C4.33239 11.0636 3.57955 11.2383 2.69318 11.2383ZM1.05682 10.3008H2.625C3.34659 10.3008 3.9446 10.1616 4.41903 9.88317C4.89347 9.60476 5.24716 9.20845 5.48011 8.69425C5.71307 8.18004 5.82955 7.56783 5.82955 6.8576C5.82955 6.15305 5.71449 5.54652 5.48438 5.038C5.25426 4.52663 4.91051 4.13459 4.45312 3.86186C3.99574 3.58629 3.42614 3.44851 2.74432 3.44851H1.05682V10.3008Z" fill="black"/>
<path d="M11.233 11.3746C10.6023 11.3746 10.0582 11.2354 9.60085 10.957C9.14631 10.6758 8.79545 10.2837 8.5483 9.78089C8.30398 9.27521 8.18182 8.68714 8.18182 8.01669C8.18182 7.34624 8.30398 6.75533 8.5483 6.24396C8.79545 5.72976 9.1392 5.32919 9.57955 5.04226C10.0227 4.75249 10.5398 4.6076 11.1307 4.6076C11.4716 4.6076 11.8082 4.66442 12.1406 4.77805C12.473 4.89169 12.7756 5.07635 13.0483 5.33203C13.321 5.58487 13.5384 5.9201 13.7003 6.33771C13.8622 6.75533 13.9432 7.26953 13.9432 7.88033V8.30646H8.89773V7.43714H12.9205C12.9205 7.06783 12.8466 6.73828 12.6989 6.44851C12.554 6.15874 12.3466 5.93004 12.0767 5.76243C11.8097 5.59482 11.4943 5.51101 11.1307 5.51101C10.7301 5.51101 10.3835 5.61044 10.0909 5.8093C9.80114 6.00533 9.57812 6.26101 9.42188 6.57635C9.26562 6.89169 9.1875 7.22976 9.1875 7.59055V8.1701C9.1875 8.66442 9.27273 9.08345 9.44318 9.4272C9.61648 9.76811 9.85653 10.0281 10.1634 10.207C10.4702 10.3832 10.8267 10.4712 11.233 10.4712C11.4972 10.4712 11.7358 10.4343 11.9489 10.3604C12.1648 10.2837 12.3509 10.1701 12.5071 10.0195C12.6634 9.86612 12.7841 9.67578 12.8693 9.44851L13.8409 9.72124C13.7386 10.0508 13.5668 10.3406 13.3253 10.5906C13.0838 10.8377 12.7855 11.0309 12.4304 11.1701C12.0753 11.3065 11.6761 11.3746 11.233 11.3746Z" fill="black"/>
<path d="M20.1094 6.15874L19.206 6.41442C19.1491 6.26385 19.0653 6.11754 18.9545 5.9755C18.8466 5.83061 18.6989 5.71129 18.5114 5.61754C18.3239 5.52379 18.0838 5.47692 17.7912 5.47692C17.3906 5.47692 17.0568 5.56925 16.7898 5.75391C16.5256 5.93572 16.3935 6.16726 16.3935 6.44851C16.3935 6.69851 16.4844 6.89595 16.6662 7.04084C16.848 7.18572 17.1321 7.30646 17.5185 7.40305L18.4901 7.64169C19.0753 7.78374 19.5114 8.00107 19.7983 8.29368C20.0852 8.58345 20.2287 8.95703 20.2287 9.41442C20.2287 9.78942 20.1207 10.1246 19.9048 10.4201C19.6918 10.7156 19.3935 10.9485 19.0099 11.119C18.6264 11.2894 18.1804 11.3746 17.6719 11.3746C17.0043 11.3746 16.4517 11.2298 16.0142 10.94C15.5767 10.6502 15.2997 10.2269 15.1832 9.6701L16.1378 9.43146C16.2287 9.78374 16.4006 10.0479 16.6534 10.2241C16.9091 10.4002 17.2429 10.4883 17.6548 10.4883C18.1236 10.4883 18.4957 10.3888 18.7713 10.19C19.0497 9.98828 19.1889 9.7468 19.1889 9.46555C19.1889 9.23828 19.1094 9.04794 18.9503 8.89453C18.7912 8.73828 18.5469 8.6218 18.2173 8.5451L17.1264 8.28942C16.527 8.14737 16.0866 7.9272 15.8054 7.62891C15.527 7.32777 15.3878 6.95135 15.3878 6.49964C15.3878 6.13033 15.4915 5.80362 15.6989 5.51953C15.9091 5.23544 16.1946 5.01243 16.5554 4.8505C16.919 4.68857 17.331 4.6076 17.7912 4.6076C18.4389 4.6076 18.9474 4.74964 19.3168 5.03374C19.6889 5.31783 19.9531 5.69283 20.1094 6.15874Z" fill="black"/>
<path d="M21.7425 11.2383V4.69283H22.7482V11.2383H21.7425ZM22.2539 3.60192C22.0579 3.60192 21.8888 3.53516 21.7468 3.40163C21.6076 3.26811 21.538 3.1076 21.538 2.9201C21.538 2.7326 21.6076 2.57209 21.7468 2.43857C21.8888 2.30504 22.0579 2.23828 22.2539 2.23828C22.4499 2.23828 22.6175 2.30504 22.7567 2.43857C22.8988 2.57209 22.9698 2.7326 22.9698 2.9201C22.9698 3.1076 22.8988 3.26811 22.7567 3.40163C22.6175 3.53516 22.4499 3.60192 22.2539 3.60192Z" fill="black"/>
<path d="M27.2322 13.8292C26.7464 13.8292 26.3288 13.7667 25.9794 13.6417C25.63 13.5195 25.3388 13.3576 25.1058 13.1559C24.8757 12.957 24.6925 12.744 24.5561 12.5167L25.3572 11.9542C25.4482 12.0735 25.5632 12.2099 25.7024 12.3633C25.8416 12.5195 26.032 12.6545 26.2734 12.7681C26.5178 12.8846 26.8374 12.9428 27.2322 12.9428C27.7607 12.9428 28.1967 12.815 28.5405 12.5593C28.8842 12.3036 29.0561 11.9031 29.0561 11.3576V10.0281H28.9709C28.897 10.1474 28.7919 10.2951 28.6555 10.4712C28.522 10.6445 28.3288 10.7994 28.076 10.9357C27.826 11.0692 27.4879 11.136 27.0618 11.136C26.5334 11.136 26.0589 11.011 25.6385 10.761C25.2209 10.511 24.8899 10.1474 24.6456 9.6701C24.4041 9.19283 24.2834 8.61328 24.2834 7.93146C24.2834 7.26101 24.4013 6.6772 24.6371 6.18004C24.8729 5.68004 25.201 5.29368 25.6214 5.02095C26.0419 4.74538 26.5277 4.6076 27.0788 4.6076C27.505 4.6076 27.843 4.67862 28.093 4.82067C28.3459 4.95987 28.5391 5.11896 28.6726 5.29794C28.8089 5.47408 28.9141 5.61896 28.9879 5.7326H29.0902V4.69283H30.0618V11.4258C30.0618 11.9883 29.9339 12.4457 29.6783 12.7979C29.4254 13.1531 29.0845 13.413 28.6555 13.5778C28.2294 13.7454 27.755 13.8292 27.2322 13.8292ZM27.1982 10.2326C27.6016 10.2326 27.9425 10.1403 28.2209 9.95561C28.4993 9.77095 28.7109 9.50533 28.8558 9.15874C29.0007 8.81214 29.0732 8.39737 29.0732 7.91442C29.0732 7.44283 29.0021 7.02663 28.8601 6.66584C28.718 6.30504 28.5078 6.02237 28.2294 5.81783C27.951 5.61328 27.6072 5.51101 27.1982 5.51101C26.772 5.51101 26.4169 5.61896 26.1328 5.83487C25.8516 6.05078 25.6399 6.34055 25.4979 6.70419C25.3587 7.06783 25.2891 7.47124 25.2891 7.91442C25.2891 8.36896 25.3601 8.77095 25.5021 9.12038C25.647 9.46697 25.8601 9.7397 26.1413 9.93857C26.4254 10.1346 26.7777 10.2326 27.1982 10.2326Z" fill="black"/>
<path d="M32.9084 7.30078V11.2383H31.9027V4.69283H32.8743V5.71555H32.9595C33.1129 5.38317 33.3459 5.11612 33.6584 4.91442C33.9709 4.70987 34.3743 4.6076 34.8686 4.6076C35.3118 4.6076 35.6996 4.69851 36.032 4.88033C36.3643 5.0593 36.6229 5.33203 36.8075 5.69851C36.9922 6.06214 37.0845 6.52237 37.0845 7.07919V11.2383H36.0788V7.14737C36.0788 6.63317 35.9453 6.2326 35.6783 5.94567C35.4112 5.65589 35.0447 5.51101 34.5788 5.51101C34.2578 5.51101 33.9709 5.58061 33.718 5.71982C33.468 5.85902 33.2706 6.06214 33.1257 6.32919C32.9808 6.59624 32.9084 6.9201 32.9084 7.30078Z" fill="black"/>
<path d="M41.6665 11.3746C41.0359 11.3746 40.4918 11.2354 40.0344 10.957C39.5799 10.6758 39.229 10.2837 38.9819 9.78089C38.7376 9.27521 38.6154 8.68714 38.6154 8.01669C38.6154 7.34624 38.7376 6.75533 38.9819 6.24396C39.229 5.72976 39.5728 5.32919 40.0131 5.04226C40.4563 4.75249 40.9734 4.6076 41.5643 4.6076C41.9052 4.6076 42.2418 4.66442 42.5742 4.77805C42.9066 4.89169 43.2092 5.07635 43.4819 5.33203C43.7546 5.58487 43.9719 5.9201 44.1339 6.33771C44.2958 6.75533 44.3768 7.26953 44.3768 7.88033V8.30646H39.3313V7.43714H43.354C43.354 7.06783 43.2802 6.73828 43.1325 6.44851C42.9876 6.15874 42.7802 5.93004 42.5103 5.76243C42.2433 5.59482 41.9279 5.51101 41.5643 5.51101C41.1637 5.51101 40.8171 5.61044 40.5245 5.8093C40.2347 6.00533 40.0117 6.26101 39.8555 6.57635C39.6992 6.89169 39.6211 7.22976 39.6211 7.59055V8.1701C39.6211 8.66442 39.7063 9.08345 39.8768 9.4272C40.0501 9.76811 40.2901 10.0281 40.5969 10.207C40.9038 10.3832 41.2603 10.4712 41.6665 10.4712C41.9308 10.4712 42.1694 10.4343 42.3825 10.3604C42.5984 10.2837 42.7844 10.1701 42.9407 10.0195C43.0969 9.86612 43.2177 9.67578 43.3029 9.44851L44.2745 9.72124C44.1722 10.0508 44.0004 10.3406 43.7589 10.5906C43.5174 10.8377 43.2191 11.0309 42.864 11.1701C42.5089 11.3065 42.1097 11.3746 41.6665 11.3746Z" fill="black"/>
<path d="M48.3782 11.3746C47.8327 11.3746 47.3512 11.2369 46.9336 10.9613C46.516 10.6829 46.1893 10.2908 45.9535 9.78516C45.7177 9.27663 45.5998 8.67578 45.5998 7.9826C45.5998 7.2951 45.7177 6.69851 45.9535 6.19283C46.1893 5.68714 46.5174 5.29652 46.9379 5.02095C47.3583 4.74538 47.8441 4.6076 48.3952 4.6076C48.8214 4.6076 49.158 4.67862 49.4052 4.82067C49.6552 4.95987 49.8455 5.11896 49.9762 5.29794C50.1097 5.47408 50.2134 5.61896 50.2873 5.7326H50.3725V2.51101H51.3782V11.2383H50.4066V10.2326H50.2873C50.2134 10.3519 50.1083 10.5025 49.9719 10.6843C49.8356 10.8633 49.641 11.0238 49.3881 11.1658C49.1353 11.305 48.7987 11.3746 48.3782 11.3746ZM48.5146 10.4712C48.918 10.4712 49.2589 10.3661 49.5373 10.1559C49.8157 9.94283 50.0273 9.64879 50.1722 9.27379C50.3171 8.89595 50.3896 8.45987 50.3896 7.96555C50.3896 7.47692 50.3185 7.04936 50.1765 6.68288C50.0344 6.31357 49.8242 6.02663 49.5458 5.82209C49.2674 5.6147 48.9237 5.51101 48.5146 5.51101C48.0884 5.51101 47.7333 5.62038 47.4492 5.83913C47.168 6.05504 46.9563 6.34908 46.8143 6.72124C46.6751 7.09055 46.6055 7.50533 46.6055 7.96555C46.6055 8.43146 46.6765 8.85476 46.8185 9.23544C46.9634 9.61328 47.1765 9.91442 47.4577 10.1388C47.7418 10.3604 48.0941 10.4712 48.5146 10.4712Z" fill="black"/>
<path d="M59.2063 11.3576C58.6325 11.3576 58.1381 11.2525 57.7234 11.0423C57.3086 10.832 56.989 10.5437 56.7646 10.1772C56.5401 9.81072 56.4279 9.39169 56.4279 8.9201C56.4279 8.55646 56.5046 8.23402 56.658 7.95277C56.8143 7.66868 57.0288 7.40589 57.3015 7.16442C57.5771 6.9201 57.8938 6.67578 58.2518 6.43146L59.5131 5.49396C59.7603 5.33203 59.9577 5.15874 60.1055 4.97408C60.256 4.78942 60.3313 4.54794 60.3313 4.24964C60.3313 4.02805 60.2333 3.81357 60.0373 3.60618C59.8441 3.39879 59.5898 3.2951 59.2745 3.2951C59.0529 3.2951 58.8569 3.35192 58.6864 3.46555C58.5188 3.57635 58.3867 3.71839 58.2901 3.89169C58.1964 4.06214 58.1495 4.23828 58.1495 4.4201C58.1495 4.62464 58.2049 4.83203 58.3157 5.04226C58.4293 5.24964 58.5728 5.46271 58.7461 5.68146C58.9222 5.89737 59.104 6.11896 59.2915 6.34624L63.2972 11.2383H62.087L58.7802 7.24964C58.4734 6.88033 58.195 6.5451 57.945 6.24396C57.695 5.94283 57.4961 5.64595 57.3484 5.35334C57.2006 5.06072 57.1268 4.74396 57.1268 4.40305C57.1268 4.01101 57.2134 3.66726 57.3867 3.3718C57.5629 3.07351 57.8086 2.84197 58.1239 2.6772C58.4421 2.50959 58.8143 2.42578 59.2404 2.42578C59.6779 2.42578 60.0543 2.51101 60.3697 2.68146C60.685 2.84908 60.9279 3.07209 61.0984 3.3505C61.2688 3.62607 61.354 3.92578 61.354 4.24964C61.354 4.66726 61.2504 5.02947 61.043 5.33629C60.8356 5.64311 60.5529 5.92862 60.195 6.19283L58.4563 7.48828C58.0643 7.77805 57.7987 8.0593 57.6594 8.33203C57.5202 8.60476 57.4506 8.80078 57.4506 8.9201C57.4506 9.19283 57.5217 9.44709 57.6637 9.68288C57.8058 9.91868 58.006 10.109 58.2646 10.2539C58.5231 10.3988 58.8256 10.4712 59.1722 10.4712C59.5018 10.4712 59.8228 10.4016 60.1353 10.2624C60.4478 10.1204 60.7305 9.91584 60.9833 9.64879C61.239 9.38175 61.4407 9.06072 61.5884 8.68572C61.739 8.31072 61.8143 7.88885 61.8143 7.4201H62.7859C62.7859 7.99964 62.7191 8.47266 62.5856 8.83913C62.4521 9.20561 62.3015 9.49254 62.1339 9.69993C61.9663 9.90732 61.8313 10.0621 61.729 10.1644C61.695 10.207 61.6637 10.2496 61.6353 10.2923C61.6069 10.3349 61.5756 10.3775 61.5415 10.4201C61.2603 10.7354 60.9052 10.9712 60.4762 11.1275C60.0472 11.2809 59.6239 11.3576 59.2063 11.3576Z" fill="black"/>
<path d="M73.9901 11.2383H71.2969V2.51101H74.1094C74.956 2.51101 75.6804 2.68572 76.2827 3.03516C76.8849 3.38175 77.3466 3.88033 77.6676 4.53089C77.9886 5.17862 78.1491 5.95419 78.1491 6.8576C78.1491 7.76669 77.9872 8.54936 77.6634 9.20561C77.3395 9.85902 76.8679 10.3619 76.2486 10.7141C75.6293 11.0636 74.8764 11.2383 73.9901 11.2383ZM72.3537 10.3008H73.9219C74.6435 10.3008 75.2415 10.1616 75.7159 9.88317C76.1903 9.60476 76.544 9.20845 76.777 8.69425C77.0099 8.18004 77.1264 7.56783 77.1264 6.8576C77.1264 6.15305 77.0114 5.54652 76.7812 5.038C76.5511 4.52663 76.2074 4.13459 75.75 3.86186C75.2926 3.58629 74.723 3.44851 74.0412 3.44851H72.3537V10.3008Z" fill="black"/>
<path d="M82.5298 11.3746C81.8991 11.3746 81.3551 11.2354 80.8977 10.957C80.4432 10.6758 80.0923 10.2837 79.8452 9.78089C79.6009 9.27521 79.4787 8.68714 79.4787 8.01669C79.4787 7.34624 79.6009 6.75533 79.8452 6.24396C80.0923 5.72976 80.4361 5.32919 80.8764 5.04226C81.3196 4.75249 81.8366 4.6076 82.4276 4.6076C82.7685 4.6076 83.1051 4.66442 83.4375 4.77805C83.7699 4.89169 84.0724 5.07635 84.3452 5.33203C84.6179 5.58487 84.8352 5.9201 84.9972 6.33771C85.1591 6.75533 85.2401 7.26953 85.2401 7.88033V8.30646H80.1946V7.43714H84.2173C84.2173 7.06783 84.1435 6.73828 83.9957 6.44851C83.8508 6.15874 83.6435 5.93004 83.3736 5.76243C83.1065 5.59482 82.7912 5.51101 82.4276 5.51101C82.027 5.51101 81.6804 5.61044 81.3878 5.8093C81.098 6.00533 80.875 6.26101 80.7188 6.57635C80.5625 6.89169 80.4844 7.22976 80.4844 7.59055V8.1701C80.4844 8.66442 80.5696 9.08345 80.7401 9.4272C80.9134 9.76811 81.1534 10.0281 81.4602 10.207C81.767 10.3832 82.1236 10.4712 82.5298 10.4712C82.794 10.4712 83.0327 10.4343 83.2457 10.3604C83.4616 10.2837 83.6477 10.1701 83.804 10.0195C83.9602 9.86612 84.081 9.67578 84.1662 9.44851L85.1378 9.72124C85.0355 10.0508 84.8636 10.3406 84.6222 10.5906C84.3807 10.8377 84.0824 11.0309 83.7273 11.1701C83.3722 11.3065 82.973 11.3746 82.5298 11.3746Z" fill="black"/>
<path d="M91.9229 4.69283L89.5025 11.2383H88.4798L86.0593 4.69283H87.1502L88.957 9.90874H89.0252L90.832 4.69283H91.9229Z" fill="black"/>
<path d="M95.7603 11.3746C95.1296 11.3746 94.5856 11.2354 94.1282 10.957C93.6737 10.6758 93.3228 10.2837 93.0756 9.78089C92.8313 9.27521 92.7092 8.68714 92.7092 8.01669C92.7092 7.34624 92.8313 6.75533 93.0756 6.24396C93.3228 5.72976 93.6665 5.32919 94.1069 5.04226C94.5501 4.75249 95.0671 4.6076 95.658 4.6076C95.9989 4.6076 96.3356 4.66442 96.668 4.77805C97.0004 4.89169 97.3029 5.07635 97.5756 5.33203C97.8484 5.58487 98.0657 5.9201 98.2276 6.33771C98.3896 6.75533 98.4705 7.26953 98.4705 7.88033V8.30646H93.4251V7.43714H97.4478C97.4478 7.06783 97.3739 6.73828 97.2262 6.44851C97.0813 6.15874 96.8739 5.93004 96.604 5.76243C96.337 5.59482 96.0217 5.51101 95.658 5.51101C95.2575 5.51101 94.9109 5.61044 94.6183 5.8093C94.3285 6.00533 94.1055 6.26101 93.9492 6.57635C93.793 6.89169 93.7148 7.22976 93.7148 7.59055V8.1701C93.7148 8.66442 93.8001 9.08345 93.9705 9.4272C94.1438 9.76811 94.3839 10.0281 94.6907 10.207C94.9975 10.3832 95.354 10.4712 95.7603 10.4712C96.0245 10.4712 96.2631 10.4343 96.4762 10.3604C96.6921 10.2837 96.8782 10.1701 97.0344 10.0195C97.1907 9.86612 97.3114 9.67578 97.3967 9.44851L98.3683 9.72124C98.266 10.0508 98.0941 10.3406 97.8526 10.5906C97.6112 10.8377 97.3129 11.0309 96.9577 11.1701C96.6026 11.3065 96.2035 11.3746 95.7603 11.3746Z" fill="black"/>
<path d="M101.006 2.51101V11.2383H100V2.51101H101.006Z" fill="black"/>
<path d="M105.507 11.3746C104.916 11.3746 104.398 11.234 103.952 10.9528C103.509 10.6715 103.162 10.2781 102.912 9.77237C102.665 9.26669 102.541 8.67578 102.541 7.99964C102.541 7.31783 102.665 6.72266 102.912 6.21413C103.162 5.70561 103.509 5.31072 103.952 5.02947C104.398 4.74822 104.916 4.6076 105.507 4.6076C106.098 4.6076 106.615 4.74822 107.058 5.02947C107.504 5.31072 107.851 5.70561 108.098 6.21413C108.348 6.72266 108.473 7.31783 108.473 7.99964C108.473 8.67578 108.348 9.26669 108.098 9.77237C107.851 10.2781 107.504 10.6715 107.058 10.9528C106.615 11.234 106.098 11.3746 105.507 11.3746ZM105.507 10.4712C105.956 10.4712 106.325 10.3562 106.615 10.1261C106.905 9.89595 107.119 9.59339 107.259 9.21839C107.398 8.84339 107.467 8.43714 107.467 7.99964C107.467 7.56214 107.398 7.15447 107.259 6.77663C107.119 6.39879 106.905 6.09339 106.615 5.86044C106.325 5.62749 105.956 5.51101 105.507 5.51101C105.058 5.51101 104.689 5.62749 104.399 5.86044C104.109 6.09339 103.895 6.39879 103.756 6.77663C103.616 7.15447 103.547 7.56214 103.547 7.99964C103.547 8.43714 103.616 8.84339 103.756 9.21839C103.895 9.59339 104.109 9.89595 104.399 10.1261C104.689 10.3562 105.058 10.4712 105.507 10.4712Z" fill="black"/>
<path d="M110.008 13.6928V4.69283H110.98V5.7326H111.099C111.173 5.61896 111.275 5.47408 111.406 5.29794C111.539 5.11896 111.73 4.95987 111.977 4.82067C112.227 4.67862 112.565 4.6076 112.991 4.6076C113.542 4.6076 114.028 4.74538 114.449 5.02095C114.869 5.29652 115.197 5.68714 115.433 6.19283C115.669 6.69851 115.787 7.2951 115.787 7.9826C115.787 8.67578 115.669 9.27663 115.433 9.78516C115.197 10.2908 114.87 10.6829 114.453 10.9613C114.035 11.2369 113.554 11.3746 113.008 11.3746C112.588 11.3746 112.251 11.305 111.998 11.1658C111.745 11.0238 111.551 10.8633 111.414 10.6843C111.278 10.5025 111.173 10.3519 111.099 10.2326H111.014V13.6928H110.008ZM110.997 7.96555C110.997 8.45987 111.069 8.89595 111.214 9.27379C111.359 9.64879 111.571 9.94283 111.849 10.1559C112.127 10.3661 112.468 10.4712 112.872 10.4712C113.292 10.4712 113.643 10.3604 113.924 10.1388C114.208 9.91442 114.422 9.61328 114.564 9.23544C114.708 8.85476 114.781 8.43146 114.781 7.96555C114.781 7.50533 114.71 7.09055 114.568 6.72124C114.429 6.34908 114.217 6.05504 113.933 5.83913C113.652 5.62038 113.298 5.51101 112.872 5.51101C112.463 5.51101 112.119 5.6147 111.841 5.82209C111.562 6.02663 111.352 6.31357 111.21 6.68288C111.068 7.04936 110.997 7.47692 110.997 7.96555Z" fill="black"/>
<path d="M120.065 11.3746C119.434 11.3746 118.89 11.2354 118.433 10.957C117.978 10.6758 117.627 10.2837 117.38 9.78089C117.136 9.27521 117.014 8.68714 117.014 8.01669C117.014 7.34624 117.136 6.75533 117.38 6.24396C117.627 5.72976 117.971 5.32919 118.412 5.04226C118.855 4.75249 119.372 4.6076 119.963 4.6076C120.304 4.6076 120.64 4.66442 120.973 4.77805C121.305 4.89169 121.608 5.07635 121.88 5.33203C122.153 5.58487 122.37 5.9201 122.532 6.33771C122.694 6.75533 122.775 7.26953 122.775 7.88033V8.30646H117.73V7.43714H121.752C121.752 7.06783 121.679 6.73828 121.531 6.44851C121.386 6.15874 121.179 5.93004 120.909 5.76243C120.642 5.59482 120.326 5.51101 119.963 5.51101C119.562 5.51101 119.216 5.61044 118.923 5.8093C118.633 6.00533 118.41 6.26101 118.254 6.57635C118.098 6.89169 118.02 7.22976 118.02 7.59055V8.1701C118.02 8.66442 118.105 9.08345 118.275 9.4272C118.449 9.76811 118.689 10.0281 118.995 10.207C119.302 10.3832 119.659 10.4712 120.065 10.4712C120.329 10.4712 120.568 10.4343 120.781 10.3604C120.997 10.2837 121.183 10.1701 121.339 10.0195C121.495 9.86612 121.616 9.67578 121.701 9.44851L122.673 9.72124C122.571 10.0508 122.399 10.3406 122.157 10.5906C121.916 10.8377 121.618 11.0309 121.262 11.1701C120.907 11.3065 120.508 11.3746 120.065 11.3746Z" fill="black"/>
<path d="M126.777 11.3746C126.231 11.3746 125.75 11.2369 125.332 10.9613C124.914 10.6829 124.588 10.2908 124.352 9.78516C124.116 9.27663 123.998 8.67578 123.998 7.9826C123.998 7.2951 124.116 6.69851 124.352 6.19283C124.588 5.68714 124.916 5.29652 125.336 5.02095C125.757 4.74538 126.243 4.6076 126.794 4.6076C127.22 4.6076 127.556 4.67862 127.804 4.82067C128.054 4.95987 128.244 5.11896 128.375 5.29794C128.508 5.47408 128.612 5.61896 128.686 5.7326H128.771V2.51101H129.777V11.2383H128.805V10.2326H128.686C128.612 10.3519 128.507 10.5025 128.37 10.6843C128.234 10.8633 128.039 11.0238 127.787 11.1658C127.534 11.305 127.197 11.3746 126.777 11.3746ZM126.913 10.4712C127.316 10.4712 127.657 10.3661 127.936 10.1559C128.214 9.94283 128.426 9.64879 128.571 9.27379C128.716 8.89595 128.788 8.45987 128.788 7.96555C128.788 7.47692 128.717 7.04936 128.575 6.68288C128.433 6.31357 128.223 6.02663 127.944 5.82209C127.666 5.6147 127.322 5.51101 126.913 5.51101C126.487 5.51101 126.132 5.62038 125.848 5.83913C125.566 6.05504 125.355 6.34908 125.213 6.72124C125.074 7.09055 125.004 7.50533 125.004 7.96555C125.004 8.43146 125.075 8.85476 125.217 9.23544C125.362 9.61328 125.575 9.91442 125.856 10.1388C126.14 10.3604 126.493 10.4712 126.913 10.4712Z" fill="black"/>
<path d="M135.27 11.2383V2.51101H136.275V5.7326H136.36C136.434 5.61896 136.537 5.47408 136.667 5.29794C136.801 5.11896 136.991 4.95987 137.238 4.82067C137.488 4.67862 137.826 4.6076 138.252 4.6076C138.804 4.6076 139.289 4.74538 139.71 5.02095C140.13 5.29652 140.458 5.68714 140.694 6.19283C140.93 6.69851 141.048 7.2951 141.048 7.9826C141.048 8.67578 140.93 9.27663 140.694 9.78516C140.458 10.2908 140.132 10.6829 139.714 10.9613C139.297 11.2369 138.815 11.3746 138.27 11.3746C137.849 11.3746 137.512 11.305 137.26 11.1658C137.007 11.0238 136.812 10.8633 136.676 10.6843C136.539 10.5025 136.434 10.3519 136.36 10.2326H136.241V11.2383H135.27ZM136.258 7.96555C136.258 8.45987 136.331 8.89595 136.475 9.27379C136.62 9.64879 136.832 9.94283 137.11 10.1559C137.389 10.3661 137.73 10.4712 138.133 10.4712C138.554 10.4712 138.904 10.3604 139.186 10.1388C139.47 9.91442 139.683 9.61328 139.825 9.23544C139.97 8.85476 140.042 8.43146 140.042 7.96555C140.042 7.50533 139.971 7.09055 139.829 6.72124C139.69 6.34908 139.478 6.05504 139.194 5.83913C138.913 5.62038 138.559 5.51101 138.133 5.51101C137.724 5.51101 137.38 5.6147 137.102 5.82209C136.824 6.02663 136.613 6.31357 136.471 6.68288C136.329 7.04936 136.258 7.47692 136.258 7.96555Z" fill="black"/>
<path d="M143 13.6928C142.829 13.6928 142.677 13.6786 142.544 13.6502C142.41 13.6246 142.318 13.5991 142.267 13.5735L142.522 12.6871C142.767 12.7496 142.983 12.7724 143.17 12.7553C143.358 12.7383 143.524 12.6545 143.669 12.5039C143.816 12.3562 143.951 12.1161 144.074 11.7837L144.261 11.2724L141.841 4.69283H142.931L144.738 9.90874H144.806L146.613 4.69283H147.704L144.926 12.1928C144.801 12.5309 144.646 12.8107 144.461 13.0323C144.277 13.2567 144.062 13.4229 143.818 13.5309C143.576 13.6388 143.304 13.6928 143 13.6928Z" fill="black"/>
<path d="M161.326 13.528C161.334 11.635 158.78 11.3655 158.147 13.0084L157.943 13.0935V13.9356L158.151 14.0156C158.782 15.6737 161.319 15.3924 161.325 13.5289L161.326 13.528Z" fill="#0084FE"/>
<path d="M161.486 13.2995C161.316 11.3753 158.472 11.2009 157.945 13.094L158.149 13.0089C158.782 11.366 161.335 11.6355 161.328 13.5285C161.32 15.3921 158.785 15.6734 158.154 14.0153L157.946 13.9353C158.627 16.0296 161.688 15.5689 161.487 13.2986L161.486 13.2995Z" fill="#0084FE"/>
<path d="M170.048 6.88215C169.166 7.03626 169.195 8.08131 168.956 8.73815C168.441 10.1512 167.232 11.3967 165.819 11.9171C165.425 12.0619 164.971 12.0973 164.62 12.2337C163.385 12.7146 163.74 14.4434 165.141 14.3584C167.861 14.1941 171.098 10.9579 171.332 8.25141C171.404 7.4211 170.956 6.723 170.048 6.88215Z" fill="#FE5B00"/>
<path d="M161.436 2.14818C160.844 0.414287 158.465 0.640813 157.943 2.31407V3.15618C158.63 5.59912 162.241 4.50944 161.436 2.14818Z" fill="#FEC000"/>
<path d="M165.228 1.77037C164.116 1.77037 164.26 2.72027 164.068 3.43016C163.65 4.98384 162.861 6.0811 161.311 6.65205C160.457 6.967 158.779 6.80531 158.815 8.07184C158.86 9.65078 161.08 8.96362 161.967 8.65541C163.97 7.95899 165.387 6.45668 165.986 4.42132C166.248 3.52869 166.709 1.76953 165.228 1.76953L165.228 1.77037Z" fill="#FEC000"/>
<path d="M170.475 0.901089C167.766 1.03919 168.621 5.4274 171.294 4.33771C173.062 3.61687 172.457 0.800036 170.475 0.901089Z" fill="#FEC000"/>
<path d="M178.599 0.696155C179.555 0.696155 180.288 0.864575 180.8 1.20057C181.312 1.53657 181.568 2.08731 181.568 2.8511C181.568 3.61489 181.309 4.17825 180.791 4.52015C180.273 4.86204 179.533 5.03383 178.571 5.03383H178.118V7.17951H176.676V0.862049C176.99 0.800576 177.323 0.757628 177.675 0.732365C178.026 0.707944 178.334 0.695312 178.599 0.695312V0.696155ZM178.692 1.92647C178.587 1.92647 178.484 1.92984 178.382 1.93573C178.28 1.94163 178.192 1.94836 178.118 1.95426V3.80436H178.571C179.071 3.80436 179.447 3.73615 179.7 3.60057C179.952 3.46499 180.079 3.21236 180.079 2.84184C180.079 2.66331 180.047 2.5151 179.982 2.39805C179.917 2.28099 179.824 2.18668 179.705 2.11594C179.584 2.0452 179.438 1.99552 179.265 1.96773C179.093 1.93994 178.901 1.92647 178.692 1.92647Z" fill="black"/>
<path d="M184.104 2.18221C184.51 2.18221 184.85 2.22853 185.121 2.32116C185.392 2.41379 185.609 2.546 185.773 2.71863C185.936 2.89127 186.051 3.10095 186.12 3.34769C186.188 3.59442 186.222 3.86895 186.222 4.17042V7.03778C186.025 7.08073 185.75 7.1321 185.398 7.19021C185.047 7.24915 184.621 7.27778 184.121 7.27778C183.807 7.27778 183.522 7.24999 183.266 7.19442C183.01 7.13884 182.789 7.04789 182.605 6.92157C182.419 6.79526 182.278 6.63021 182.179 6.42642C182.081 6.22263 182.031 5.97337 182.031 5.67694C182.031 5.38052 182.089 5.15316 182.202 4.95526C182.316 4.75821 182.469 4.60074 182.66 4.48368C182.851 4.36663 183.07 4.28158 183.317 4.22937C183.564 4.17716 183.82 4.15105 184.085 4.15105C184.264 4.15105 184.423 4.15863 184.562 4.17379C184.701 4.18895 184.813 4.20916 184.899 4.23358V4.10389C184.899 3.86979 184.829 3.682 184.686 3.53969C184.544 3.39821 184.298 3.32663 183.946 3.32663C183.712 3.32663 183.481 3.34348 183.252 3.37716C183.024 3.41084 182.827 3.45884 182.66 3.52032L182.484 2.41042C182.564 2.386 182.665 2.3599 182.785 2.33211C182.905 2.30432 183.036 2.2799 183.178 2.258C183.32 2.23611 183.47 2.21758 183.627 2.20242C183.785 2.18727 183.943 2.17969 184.104 2.17969V2.18221ZM184.215 6.21505C184.35 6.21505 184.48 6.21168 184.603 6.20579C184.726 6.19989 184.825 6.19063 184.899 6.178V5.13295C184.843 5.12031 184.76 5.10852 184.649 5.09589C184.537 5.08326 184.435 5.07737 184.344 5.07737C184.214 5.07737 184.093 5.08495 183.978 5.1001C183.864 5.11526 183.764 5.14474 183.678 5.18768C183.591 5.23063 183.523 5.28958 183.474 5.36368C183.424 5.43779 183.4 5.53042 183.4 5.64073C183.4 5.85631 183.472 6.00621 183.617 6.08958C183.762 6.17294 183.961 6.21421 184.213 6.21421L184.215 6.21505Z" fill="black"/>
<path d="M189.411 7.26988C189.01 7.26399 188.685 7.2202 188.435 7.1402C188.185 7.0602 187.987 6.94736 187.843 6.80251C187.698 6.65767 187.599 6.48167 187.547 6.27536C187.495 6.06904 187.469 5.83578 187.469 5.57725V0.222315L188.846 0V5.29936C188.846 5.42315 188.856 5.53346 188.874 5.63199C188.893 5.73052 188.928 5.81388 188.98 5.88209C189.033 5.95031 189.108 6.00588 189.207 6.04883C189.305 6.09178 189.438 6.11957 189.604 6.1322L189.41 7.26988H189.411Z" fill="black"/>
<path d="M180.976 15.3468C180.563 14.6133 180.117 13.8882 179.635 13.1733C179.154 12.4583 178.642 11.783 178.1 11.148V15.3468H176.676V8.9375H177.851C178.054 9.14129 178.279 9.39055 178.526 9.68697C178.773 9.98255 179.024 10.2992 179.28 10.6352C179.536 10.9712 179.79 11.3198 180.043 11.6802C180.295 12.0407 180.533 12.3876 180.755 12.7211V8.93834H182.188V15.3476H180.976V15.3468Z" fill="black"/>
<path d="M183.346 12.9472C183.346 12.5161 183.412 12.138 183.544 11.8138C183.677 11.4904 183.851 11.2201 184.067 11.0045C184.283 10.7889 184.531 10.6256 184.812 10.5144C185.092 10.4032 185.38 10.3477 185.677 10.3477C186.367 10.3477 186.913 10.559 187.314 10.9809C187.715 11.4037 187.915 12.0243 187.915 12.8445C187.915 12.9245 187.912 13.0129 187.906 13.1081C187.9 13.2041 187.893 13.2883 187.887 13.3624H184.761C184.792 13.6462 184.925 13.871 185.159 14.0378C185.393 14.2045 185.708 14.2879 186.102 14.2879C186.355 14.2879 186.603 14.2643 186.846 14.2188C187.09 14.1725 187.288 14.1152 187.443 14.0479L187.628 15.167C187.554 15.2041 187.455 15.2411 187.332 15.2782C187.208 15.3152 187.072 15.3472 186.92 15.375C186.769 15.4028 186.607 15.4255 186.435 15.4441C186.262 15.4626 186.089 15.4719 185.917 15.4719C185.479 15.4719 185.098 15.407 184.775 15.2773C184.451 15.1476 184.183 14.9708 183.97 14.7451C183.757 14.5203 183.6 14.2533 183.498 13.9451C183.396 13.6369 183.346 13.3043 183.346 12.9464V12.9472ZM186.584 12.4201C186.578 12.303 186.557 12.1885 186.524 12.0782C186.49 11.967 186.437 11.8685 186.366 11.7826C186.296 11.6959 186.206 11.6251 186.098 11.5695C185.99 11.514 185.856 11.4862 185.695 11.4862C185.534 11.4862 185.409 11.5123 185.298 11.5645C185.187 11.6167 185.094 11.6866 185.021 11.7725C184.947 11.8592 184.889 11.9594 184.85 12.0731C184.809 12.1877 184.781 12.303 184.762 12.4201H186.584H186.584Z" fill="black"/>
<path d="M190.374 14.3558C190.626 14.3558 190.805 14.3313 190.91 14.2817C191.015 14.2328 191.068 14.1368 191.068 13.9953C191.068 13.8842 190.999 13.7873 190.864 13.704C190.728 13.6206 190.522 13.5271 190.244 13.4219C190.028 13.3419 189.832 13.2585 189.657 13.1726C189.481 13.0867 189.332 12.9831 189.208 12.8627C189.084 12.7423 188.989 12.5991 188.922 12.4324C188.854 12.2657 188.82 12.0652 188.82 11.8311C188.82 11.3747 188.989 11.0143 189.329 10.749C189.668 10.4838 190.134 10.3516 190.725 10.3516C191.02 10.3516 191.304 10.3777 191.575 10.4299C191.846 10.4821 192.062 10.5394 192.223 10.6008L191.982 11.6737C191.822 11.6181 191.648 11.5692 191.459 11.5255C191.271 11.4825 191.06 11.4606 190.826 11.4606C190.394 11.4606 190.178 11.581 190.178 11.821C190.178 11.8766 190.188 11.9263 190.206 11.9692C190.225 12.0122 190.262 12.0543 190.317 12.0939C190.373 12.1343 190.448 12.1772 190.544 12.2236C190.639 12.2699 190.761 12.3212 190.909 12.3777C191.212 12.4897 191.461 12.6 191.659 12.7086C191.856 12.8172 192.012 12.9351 192.126 13.0606C192.24 13.1869 192.321 13.3267 192.367 13.4808C192.413 13.6349 192.436 13.8135 192.436 14.0156C192.436 14.4956 192.256 14.8585 191.894 15.1044C191.534 15.3503 191.024 15.4732 190.364 15.4732C189.932 15.4732 189.573 15.4362 189.286 15.3621C188.999 15.288 188.8 15.2265 188.689 15.1768L188.921 14.0577C189.155 14.1503 189.396 14.2227 189.643 14.2749C189.889 14.3271 190.133 14.3532 190.374 14.3532V14.3558Z" fill="black"/>
<path d="M193.414 9.26919L194.793 9.04688V10.4801H196.448V11.6271H194.793V13.3382C194.793 13.6279 194.843 13.8595 194.945 14.0321C195.047 14.2048 195.252 14.2915 195.56 14.2915C195.708 14.2915 195.86 14.2772 196.018 14.2494C196.175 14.2216 196.318 14.1829 196.448 14.134L196.643 15.2069C196.476 15.2751 196.292 15.3332 196.088 15.3829C195.884 15.4325 195.635 15.457 195.338 15.457C194.962 15.457 194.65 15.4064 194.404 15.3045C194.158 15.2027 193.961 15.0612 193.812 14.8793C193.664 14.6974 193.561 14.4768 193.502 14.2182C193.444 13.9589 193.415 13.6726 193.415 13.3584V9.27003L193.414 9.26919Z" fill="black"/>
<path d="M201.933 12.9009C201.933 13.2832 201.877 13.6335 201.766 13.951C201.655 14.2685 201.495 14.5396 201.285 14.7653C201.075 14.9902 200.824 15.1645 200.531 15.2883C200.238 15.4112 199.91 15.4735 199.546 15.4735C199.182 15.4735 198.863 15.4121 198.57 15.2883C198.277 15.1653 198.026 14.991 197.816 14.7653C197.607 14.5405 197.443 14.2693 197.326 13.951C197.209 13.6335 197.15 13.2841 197.15 12.9009C197.15 12.5178 197.21 12.17 197.331 11.8559C197.451 11.5418 197.618 11.2731 197.83 11.0508C198.043 10.8285 198.296 10.6559 198.589 10.5329C198.882 10.41 199.201 10.3477 199.546 10.3477C199.891 10.3477 200.22 10.4091 200.513 10.5329C200.806 10.6567 201.057 10.8285 201.267 11.0508C201.476 11.2731 201.64 11.5409 201.757 11.8559C201.874 12.17 201.933 12.5186 201.933 12.9009ZM200.526 12.9009C200.526 12.4757 200.441 12.1413 200.272 11.8971C200.102 11.6538 199.86 11.5317 199.546 11.5317C199.232 11.5317 198.988 11.6538 198.815 11.8971C198.643 12.1405 198.556 12.4757 198.556 12.9009C198.556 13.3262 198.642 13.6639 198.815 13.914C198.988 14.1632 199.231 14.2887 199.546 14.2887C199.861 14.2887 200.103 14.1641 200.272 13.914C200.441 13.6639 200.526 13.327 200.526 12.9009Z" fill="black"/>
</svg>
